<svg width="346" height="49" viewBox="0 0 346 49" fill="none" xmlns="http://www.w3.org/2000/svg">
<g clip-path="url(#clip0_11_24)">
<path d="M56.1616 28.1348C56.1616 28.1348 44.6577 10.0485 44.6345 9.99904C43.8939 8.8806 43.0526 8.42022 42.4496 8.23131C42.4496 8.23131 41.8147 8.10433 41.7884 8.10308C41.6545 8.09995 41.333 8.09432 41.2561 8.10433H27.2225C28.3021 7.6502 29.054 6.70253 29.054 5.59786C29.054 4.05595 27.6003 2.80115 25.8138 2.80115H21.0248C19.2383 2.80115 17.7846 4.05532 17.7846 5.59786C17.7846 6.70191 18.5358 7.64957 19.6149 8.10433C18.2043 8.1037 14.9716 8.10308 14.9247 8.10183C14.4593 8.11246 13.4284 8.2163 12.5696 8.86684C12.5615 8.8731 12.5533 8.87935 12.5446 8.88561C12.4939 8.92501 12.4445 8.96943 12.3945 9.01321C12.1843 9.20462 11.9954 9.41918 11.8427 9.66L0.473872 27.5681L0.156732 28.2399C-0.0302988 28.7985 -0.0515664 29.3959 0.101687 29.9757C0.328126 30.8321 0.901105 31.547 1.71741 31.9893C1.95636 32.1175 2.20782 32.2163 2.47179 32.2877L3.33689 32.2914V46.6077H29.181H30.432H37.2696H45.8243H52.867V32.3834C52.8833 32.3834 52.8983 32.3884 52.9146 32.3884C53.5201 32.3884 54.1174 32.237 54.6423 31.9499C55.4554 31.5051 56.0247 30.7895 56.2467 29.9313C56.4025 29.3283 56.3706 28.709 56.1616 28.1348ZM20.9153 8.38519C20.9529 8.38581 20.9866 8.39457 21.0248 8.39457H22.4479V12.8883H20.9153V8.38519ZM23.6995 8.39457H25.8144C25.8513 8.39457 25.8864 8.38581 25.9233 8.38519V12.8883H23.6995V8.39457ZM19.0363 5.59786C19.0363 4.7459 19.9283 4.05219 21.0254 4.05219H25.8144C26.911 4.05219 27.8036 4.74527 27.8036 5.59786C27.8036 6.45045 26.911 7.14353 25.8144 7.14353H23.6995H22.4485H21.0254C19.9276 7.14353 19.0363 6.44982 19.0363 5.59786ZM29.1804 32.4196V33.8859H4.58731V32.2977L29.1804 32.4196ZM4.58731 35.1363H6.22743V37.8167H4.58731V35.1363ZM17.4649 37.8167H15.9537V35.1363H17.4649V37.8167ZM4.58731 39.0677H6.22743V41.7518H4.58731V39.0677ZM7.47847 35.2307H10.4641V41.7524H7.47847V35.2307ZM11.7151 35.2307H14.702V41.7524H11.7151V35.2307ZM15.9537 39.0677H17.4649V41.7518H15.9537V39.0677ZM18.716 35.2307H21.701V41.7524H18.716V35.2307ZM22.952 35.2307H25.9383V41.7524H22.952V35.2307ZM27.1899 39.0677H29.181V41.7518H27.1899V39.0677ZM30.4314 39.0677H37.269V41.7518H30.4314V39.0677ZM45.8236 39.0677H51.6153V41.7518H45.8236V39.0677ZM45.8236 37.8167V35.1363H51.6153V37.8167H45.8236ZM37.269 37.8167H30.4314V35.1363H37.269V37.8167ZM29.1804 37.8167H27.1899V35.1363H29.181L29.1804 37.8167ZM4.58731 45.3561V43.0029H6.22743H15.9537H17.4649H27.1899H29.181V45.3561H4.58731ZM30.4314 45.3561V43.0029H37.269V45.3561H30.4314ZM38.52 45.3561V35.2307H44.5726V45.3567L38.52 45.3561ZM45.8236 45.3561V43.0029H51.6153V45.3561H45.8236ZM51.6153 33.8852H30.4314V32.3984C31.2471 32.3371 32.0046 32.0124 32.5751 31.4795C32.6307 31.4232 32.7227 31.3256 32.8297 31.2049H37.9715H45.1212H50.3017C50.4919 31.4176 50.6539 31.5983 50.6539 31.5983C50.9392 31.8317 51.2657 32.0124 51.6147 32.1457L51.6153 33.8852ZM40.0169 19.9674H42.9844C43.3866 20.5991 43.8457 21.321 44.3349 22.0879H38.6714L40.0169 19.9674ZM40.8113 18.7163L41.4988 17.6329C41.4988 17.6329 41.7615 18.0458 42.1881 18.7163H40.8113ZM43.8701 26.0199H42.2675V23.3383H43.8701V26.0199ZM41.0165 26.0199H39.2225V23.3383H41.0165V26.0199ZM39.2225 27.271H41.0165V29.9538H39.2225V27.271ZM42.2675 27.271H43.8701V29.9538H42.2675V27.271ZM45.1212 27.271H47.6477C48.3476 28.3619 48.9588 29.3089 49.3797 29.9538H45.1212V27.271ZM45.1212 26.0199V23.3383H45.1331C45.7035 24.2328 46.2884 25.1473 46.8464 26.0199H45.1212ZM37.8776 23.3383H37.9715V26.0199H36.1756L37.8776 23.3383ZM35.3812 27.271H37.9715V29.9538H33.6785C33.7129 29.8656 33.736 29.8344 33.7517 29.8375L35.3812 27.271ZM55.0351 29.6167C54.9006 30.1359 54.5478 30.5744 54.0411 30.8508C53.6996 31.0379 53.3099 31.1367 52.9133 31.1367C52.1408 31.1367 51.4171 30.7626 51.0261 30.1615L41.4931 15.3072L32.1973 29.9526L32.0471 30.1859C31.8326 30.5168 31.5129 30.777 31.1414 30.9447C31.127 30.9547 31.1082 30.9628 31.0901 30.9716C31.0895 30.9716 31.0388 30.9947 31.0069 31.0047C30.9956 31.0085 30.9812 31.0097 30.9694 31.0135C30.6729 31.1211 28.9151 31.1711 28.9014 31.1711L3.42947 31.1586C3.021 31.1586 2.64444 31.0673 2.31166 30.8884C1.80311 30.6138 1.44781 30.1759 1.31082 29.6567C1.18322 29.1744 1.26203 28.6696 1.53351 28.2361L12.8986 10.3299C13.1807 9.88582 13.6474 9.56868 14.1822 9.42731C14.1928 9.4223 14.251 9.40917 14.2685 9.40729C14.5175 9.35099 15.4257 9.35725 15.5746 9.356L19.6643 9.35537V14.1394H27.1737V9.35412C29.8834 9.35225 40.1902 9.34411 41.5989 9.3535C42.0423 9.39916 42.8499 9.63373 43.5686 10.6608L54.8299 28.2368C55.0832 28.659 55.1564 29.1475 55.0351 29.6167Z" fill="#111111"/>
<path d="M75 0.485901H75.6616L82.9255 20.6699H82.2613L75 0.485901ZM75.9671 0.485901H76.6287L83.8926 20.6699H83.2284L75.9671 0.485901ZM76.9342 0.485901H77.5984L84.8595 20.6699H84.1953L76.9342 0.485901ZM77.9013 0.485901H78.5628L85.8268 20.6699H85.1626L77.9013 0.485901ZM106.889 0.485901L107.551 0.485844L100.289 20.6699H99.5828L93.209 2.9565L93.0576 3.37895L99.2771 20.6692H98.6156L92.7253 4.30022L92.5738 4.72267L98.3099 20.6686H97.6483L92.2418 5.64393L92.0903 6.06635L97.343 20.6679H96.6814L91.7583 6.98762L91.5696 7.51366L91.6361 7.48974L96.3758 20.6675H95.7142L91.2746 8.33159L86.8349 20.6675H86.1282L78.8671 0.48353H79.5313L84.5474 14.4317L89.0082 2.03509H89.6697L84.8795 15.3515L85.0309 15.774L89.9754 2.0359H90.637L85.3632 16.6967L85.5147 17.1191L90.9426 2.03671H91.6042L85.8467 18.0418L85.9982 18.4643L91.9095 2.03749H92.5711L86.3461 19.3444L86.3115 19.3337L86.4816 19.8093L92.8767 2.03821H93.5409L98.0016 14.4348L103.02 0.486645H103.682L98.3311 15.3539L98.4852 15.7764L103.987 0.48601H104.649L98.8172 16.6976L98.9687 17.1201L104.955 0.485374H105.616L99.2981 18.0413L99.4522 18.4638L105.922 0.484739H106.583L99.7975 19.3432L99.763 19.3325L99.9357 19.8081L106.889 0.485901ZM111.664 0.477959H112.342L103.922 20.6699H103.244L111.664 0.477959ZM112.628 0.477959H113.306L104.886 20.6699H104.211L112.628 0.477959ZM113.596 0.477959H114.27L105.851 20.6699H105.176L113.596 0.477959ZM114.559 0.477959H115.237L106.815 20.6699H106.14L114.559 0.477959ZM123.979 20.6698L115.933 1.11821L115.761 1.53532L123.633 20.6696H122.958L115.421 2.34829L115.248 2.7654L122.615 20.6722H121.941L114.908 3.58125L114.735 3.99573L121.595 20.6723H120.92L114.395 4.81086L114.223 5.22534L120.578 20.6695H119.903L118.389 16.9818H109.323L107.785 20.6695H107.107L115.527 0.477518H116.346L124.654 20.6695L123.979 20.6698ZM118.127 16.3577L117.995 16.0336H109.716L109.581 16.3577H118.127ZM117.738 15.4093L117.602 15.0852H110.11L109.974 15.4093H117.738ZM117.346 14.4606L117.211 14.1365H110.505L110.369 14.4606H117.346ZM116.956 13.5122L116.824 13.1881H110.902L110.766 13.5122H116.956ZM116.566 12.5641L113.882 6.04163L111.162 12.5641H116.566ZM126.744 20.6698H126.12V0.485749H126.744V20.6698ZM127.706 20.6698H127.082V0.485749H127.706V20.6698ZM128.668 20.6698H128.043V0.485749H128.668V20.6698ZM129.632 20.6698H129.008V0.485749H129.632V20.6698ZM138.504 16.812L130.594 16.812V17.1521H138.504V17.7738H130.594V18.1139H138.504V18.7382H130.594V19.0757H138.504V19.7H130.594V20.0401H138.504V20.6644H130.594V20.6697H129.97V0.485723H130.594V16.1876H138.504V16.812ZM140.575 20.6698H139.95V0.51535H140.575V20.6698ZM141.539 20.6698H140.915V0.51535H141.539V20.6698ZM142.501 20.6698H141.877V0.51535H142.501V20.6698ZM143.465 20.6698H142.841V0.51535H143.465V20.6698ZM157.342 0.514781L149.396 11.1606L157.028 20.6692H156.229L146.518 8.5751L146.308 8.85406L155.793 20.6687H154.993L145.923 9.37173L145.715 9.65068L154.557 20.6683H153.757L145.327 10.1662L145.12 10.4478L153.324 20.6683H152.524L144.732 10.9655L144.525 11.2444L152.088 20.6679H151.288L144.426 12.1181V20.6679H143.801V0.513474H144.426V10.3333L151.756 0.513474H152.535L146.902 8.05613L147.123 8.32977L152.957 0.513488H153.735L147.526 8.83228L147.744 9.10593L154.158 0.513503H154.939L148.148 9.60772L148.366 9.87872L155.361 0.513033H156.14L148.77 10.3834L148.99 10.657L156.563 0.513048H157.341L157.342 0.514781ZM159.433 20.6724H158.809V0.483346H159.433V20.6724ZM160.395 20.6724H159.771V0.483346H160.395V20.6724ZM161.36 20.6724H160.735V0.483346H161.36V20.6724ZM162.321 20.6724H161.697V0.483346H162.321V20.6724ZM170.608 1.10465L163.285 1.10468V1.44475H170.608V2.0691H163.285V2.40651H170.608V3.03086H163.285V3.37094H170.608V3.99529H163.285V4.3327H170.608V4.95705H163.285V8.83603H168.612V9.46038H163.285V9.80045H168.612V10.4222H163.285V10.7622H168.612V11.3866H163.285V11.724H168.612V12.3483H163.285V12.6884H168.612V13.3128H163.285V16.1955H170.608V16.8198H163.285V17.1572H170.608V17.7816H163.285V18.1216H170.608V18.7434H163.285V19.0834H170.608V19.7078H163.285V20.0452H170.608V20.6695H162.661V0.482637H170.608V1.10465ZM176.754 10.3158L177.32 10.0555L182.24 20.6695H181.552L176.754 10.3158ZM177.633 9.92595L178.199 9.66558L183.3 20.6702H182.612L177.633 9.92595ZM178.476 9.4682L179.044 9.20518L184.363 20.669H183.675L178.476 9.4682ZM172.689 20.6698H172.065V0.496578H172.689V20.6698ZM173.651 20.6698H173.026V0.496578H173.651V20.6698ZM174.615 20.6698H173.991V0.496578H174.615V20.6698ZM175.577 20.6698H174.953V0.496578H175.577V20.6698ZM181.693 12.6248L185.426 20.6721H184.738L179.323 8.99241L179.642 8.75861C180.213 8.35741 180.561 7.69851 180.561 6.99976C180.561 5.8175 179.6 4.85834 178.42 4.85834H176.542V10.6608L181.181 20.6691H180.492L176.542 12.146V20.6691H175.917V0.495915H178.417C182.007 0.495915 184.927 3.41565 184.927 7.00511C184.927 9.32451 183.691 11.4557 181.693 12.6248ZM180.102 9.18663L180.235 9.47889C181.018 8.90237 181.494 7.9778 181.494 7.00008C181.494 5.30238 180.112 3.92352 178.417 3.92352H176.539V4.23438H178.417C179.942 4.23438 181.183 5.47512 181.183 7.00011C181.183 7.85827 180.779 8.66326 180.102 9.18663ZM180.503 10.0559L180.633 10.3428C181.749 9.60151 182.429 8.34481 182.429 7.00054C182.429 4.78741 180.63 2.98886 178.417 2.98886H176.539V3.29971H178.417C180.457 3.29971 182.118 4.96022 182.118 7.00065C182.118 8.21749 181.504 9.3703 180.503 10.0559ZM180.901 10.9115L181.034 11.1958C182.482 10.2925 183.369 8.70898 183.369 6.99815C183.369 4.27219 181.148 2.05106 178.42 2.05106H176.541V2.36191H178.42C180.975 2.36191 183.056 4.44219 183.056 6.99797C183.056 8.58678 182.235 10.0612 180.901 10.9115ZM181.297 11.767L181.433 12.0566C183.208 10.9939 184.305 9.08087 184.305 7.00587C184.305 3.76181 181.664 1.12105 178.42 1.12105H176.542V1.42926H178.42C181.492 1.42926 183.992 3.9293 183.992 7.00073C183.992 8.9535 182.963 10.7574 181.297 11.767ZM193.137 8.15635C196.567 8.18291 199.351 10.9779 199.351 14.4131C199.351 17.8617 196.545 20.6699 193.094 20.6699C190.52 20.6699 188.243 19.1263 187.287 16.7325L187.786 16.5013L187.852 16.4747C188.705 18.6427 190.764 20.0454 193.092 20.0454C196.198 20.0454 198.724 17.5188 198.724 14.413C198.724 11.3072 196.198 8.78061 193.092 8.78061V8.77263C191.753 8.74871 190.669 7.65412 190.669 6.3071C190.669 4.94679 191.777 3.8389 193.137 3.8389C194.144 3.8389 195.01 4.43668 195.393 5.30281L194.827 5.56583C194.542 4.91491 193.894 4.4632 193.137 4.4632C192.122 4.4632 191.293 5.29212 191.293 6.3097C191.293 7.32727 192.119 8.15635 193.137 8.15635ZM190.345 6.30949C190.345 7.85044 191.599 9.10187 193.137 9.10447C196.046 9.12838 198.403 11.5009 198.403 14.4128C198.403 17.3407 196.02 19.7238 193.092 19.7238C190.903 19.7238 188.937 18.3662 188.145 16.3336L188.711 16.0706C189.401 17.8853 191.147 19.0995 193.092 19.0995C195.677 19.0995 197.778 16.9979 197.778 14.4129C197.778 11.8279 195.677 9.72632 193.092 9.72632V9.72367C191.229 9.69975 189.72 8.17738 189.72 6.30951C189.72 4.42583 191.253 2.89275 193.137 2.89275C194.495 2.89275 195.703 3.70572 196.248 4.90661L195.682 5.16963C195.241 4.18656 194.248 3.51706 193.137 3.51706C191.596 3.51706 190.345 4.76847 190.345 6.30949ZM197.106 4.51101L196.54 4.77668C195.943 3.4589 194.609 2.57417 193.137 2.57417C191.075 2.57417 189.399 4.25064 189.399 6.31236C189.399 8.37408 191.075 10.0505 193.137 10.0505C195.52 10.0745 197.454 12.0193 197.454 14.4105C197.454 16.815 195.499 18.7731 193.091 18.7731C191.274 18.7731 189.637 17.6173 189.008 15.9303L189.576 15.6673C190.103 17.1365 191.519 18.1488 193.091 18.1488C195.153 18.1488 196.83 16.4723 196.83 14.4106C196.83 12.3489 195.153 10.6724 193.091 10.6724V10.6697C190.708 10.6458 188.774 8.70101 188.774 6.30978C188.774 3.90533 190.73 1.94721 193.137 1.94721C194.853 1.94721 196.408 2.97807 197.106 4.51101ZM197.97 4.11247L197.401 4.37283C196.647 2.71232 194.978 1.62298 193.134 1.62298C190.549 1.62298 188.448 3.72455 188.448 6.30958C188.448 8.8946 190.549 10.9962 193.134 10.9962V10.9988C194.997 11.0227 196.506 12.5451 196.506 14.413C196.506 16.2967 194.973 17.8297 193.089 17.8297C191.63 17.8297 190.339 16.8865 189.866 15.5342L190.435 15.2712C190.804 16.4083 191.877 17.2054 193.091 17.2054C194.632 17.2054 195.884 15.954 195.884 14.413C195.884 12.872 194.633 11.6206 193.091 11.6206C190.182 11.5967 187.826 9.22416 187.826 6.31223C187.826 3.3844 190.209 1.00125 193.137 1.00125C195.225 1.00125 197.112 2.23406 197.97 4.11247ZM193.092 12.5663C189.664 12.5424 186.88 9.74473 186.88 6.31209C186.88 2.86097 189.686 0.0553047 193.137 0.0553047C195.613 0.0553047 197.807 1.48203 198.825 3.71638L198.259 3.9794C197.343 1.96555 195.366 0.679611 193.137 0.679611C190.031 0.679611 187.504 3.20622 187.504 6.31202C187.504 9.41781 190.031 11.9444 193.137 11.9444V11.9471C194.476 11.971 195.56 13.0656 195.56 14.4126C195.56 15.7729 194.455 16.8808 193.092 16.8808C191.978 16.8808 191.041 16.1501 190.732 15.1326L191.304 14.867C191.506 15.672 192.228 16.2565 193.092 16.2565C194.109 16.2565 194.938 15.4303 194.938 14.4127C194.938 13.3951 194.109 12.5663 193.092 12.5663ZM208.846 20.6698H208.222V0.451093H208.846V20.6698ZM209.811 20.6698H209.186V0.451093H209.811V20.6698ZM210.773 20.6698H210.148V0.451093H210.773V20.6698ZM211.737 20.6698H211.113V0.451093H211.737V20.6698ZM214.577 0.451245C218.167 0.451245 221.084 3.37098 221.089 6.96044C221.089 10.5499 218.169 13.4696 214.58 13.4696H212.701V20.6696H212.077V0.450957L214.577 0.451245ZM212.699 4.81352V9.09638H214.577C215.757 9.09638 216.719 8.13728 216.719 6.95495C216.719 5.77262 215.757 4.81352 214.577 4.81352H212.699ZM212.699 9.71801L212.699 10.0316H214.577C216.272 10.0316 217.654 8.6527 217.654 6.95501C217.654 5.25732 216.275 3.87846 214.577 3.87846H212.699V4.18666H214.577C216.102 4.18666 217.343 5.4274 217.343 6.95239C217.343 8.47739 216.102 9.71813 214.577 9.71813L212.699 9.71801ZM212.699 10.6566V10.9674H214.577C216.79 10.9674 218.589 9.16877 218.589 6.95572C218.589 4.74267 216.79 2.94405 214.577 2.94405H212.699V3.2549H214.577C216.618 3.2549 218.278 4.91541 218.278 6.95583C218.278 8.99625 216.618 10.6568 214.577 10.6568L212.699 10.6566ZM212.699 11.5916V11.9024H214.577C217.306 11.9024 219.527 9.68397 219.527 6.95535C219.527 4.22672 217.306 2.00566 214.577 2.00566H212.699V2.31916H214.577C217.133 2.31916 219.213 4.39944 219.213 6.95522C219.213 9.511 217.133 11.5913 214.577 11.5913L212.699 11.5916ZM214.577 12.8457C217.821 12.8457 220.462 10.2049 220.462 6.96087C220.462 3.71689 217.821 1.07606 214.577 1.07606H212.699V1.38426H214.577C217.651 1.38426 220.151 3.8843 220.151 6.95573C220.151 10.0272 217.651 12.5272 214.577 12.5272H212.699V12.846L214.577 12.8457ZM227.236 10.3158L227.801 10.0555L232.722 20.6695H232.034L227.236 10.3158ZM228.115 9.92595L228.681 9.66558L233.782 20.6702H233.094L228.115 9.92595ZM228.957 9.4682L229.526 9.20518L234.845 20.669H234.157L228.957 9.4682ZM223.171 20.6698H222.546V0.496578H223.171V20.6698ZM224.132 20.6698H223.508V0.496578H224.132V20.6698ZM225.097 20.6698H224.473V0.496578H225.097V20.6698ZM226.059 20.6698H225.434V0.496578H226.059V20.6698ZM232.175 12.6248L235.908 20.6721H235.22L229.805 8.99241L230.124 8.75861C230.695 8.35741 231.043 7.69851 231.043 6.99976C231.043 5.8175 230.081 4.85834 228.902 4.85834H227.023V10.6608L231.662 20.6691H230.974L227.023 12.146V20.6691H226.399V0.495915H228.899C232.489 0.495915 235.408 3.41565 235.408 7.00511C235.408 9.32451 234.173 11.4557 232.175 12.6248ZM230.584 9.18663L230.716 9.47889C231.5 8.90237 231.976 7.9778 231.976 7.00008C231.976 5.30238 230.594 3.92352 228.899 3.92352H227.021V4.23438H228.899C230.424 4.23438 231.665 5.47512 231.665 7.00011C231.665 7.85827 231.261 8.66326 230.584 9.18663ZM230.984 10.0559L231.114 10.3428C232.23 9.60151 232.91 8.34481 232.91 7.00054C232.91 4.78741 231.112 2.98886 228.899 2.98886H227.02V3.29971H228.899C230.939 3.29971 232.6 4.96022 232.6 7.00065C232.6 8.21749 231.986 9.3703 230.984 10.0559ZM231.383 10.9115L231.516 11.1958C232.964 10.2925 233.851 8.70898 233.851 6.99815C233.851 4.27219 231.63 2.05106 228.901 2.05106H227.023V2.36191H228.901C231.457 2.36191 233.537 4.44219 233.537 6.99797C233.537 8.58678 232.717 10.0612 231.383 10.9115ZM231.779 11.767L231.915 12.0566C233.689 10.9939 234.787 9.08087 234.787 7.00587C234.787 3.76181 232.146 1.12105 228.902 1.12105H227.023V1.42926H228.902C231.973 1.42926 234.473 3.9293 234.473 7.00073C234.473 8.9535 233.445 10.7574 231.779 11.767ZM247.379 0C253.222 0 257.974 4.75042 257.974 10.5952C257.974 16.4376 253.221 21.1905 247.379 21.1905C241.537 21.1905 236.784 16.4375 236.784 10.5952C236.784 4.75302 241.537 0 247.379 0ZM247.379 20.5635C252.876 20.5635 257.35 16.0895 257.35 10.5928C257.35 5.09611 252.876 0.622068 247.379 0.622068C241.883 0.622068 237.409 5.09351 237.409 10.5928C237.409 16.092 241.883 20.5635 247.379 20.5635ZM247.379 0.93498C252.706 0.93498 257.039 5.26838 257.037 10.5923C257.037 15.9166 252.703 20.2497 247.379 20.2497C242.055 20.2497 237.722 15.9192 237.722 10.5923C237.722 5.26809 242.052 0.93498 247.379 0.93498ZM247.379 19.6283C252.361 19.6283 256.415 15.5739 256.413 10.5947C256.413 5.61038 252.361 1.559 247.379 1.559C242.397 1.559 238.344 5.61342 238.344 10.5947C238.344 15.576 242.398 19.6283 247.379 19.6283ZM247.379 1.86996C252.191 1.86996 256.102 5.78345 256.102 10.5923C256.102 15.4012 252.188 19.3147 247.379 19.3147C242.57 19.3147 238.657 15.4012 238.657 10.5923C238.657 5.78345 242.57 1.86996 247.379 1.86996ZM247.379 18.6904C251.845 18.6904 255.477 15.0585 255.477 10.5926C255.477 6.12661 251.845 2.4947 247.379 2.4947C242.913 2.4947 239.281 6.12661 239.281 10.5926C239.281 15.0585 242.913 18.6904 247.379 18.6904ZM247.379 2.80566C251.673 2.80566 255.167 6.29953 255.167 10.5931C255.167 14.8866 251.673 18.3805 247.379 18.3805C243.086 18.3805 239.592 14.8866 239.592 10.5931C239.592 6.29953 243.086 2.80566 247.379 2.80566ZM247.379 17.7552C251.33 17.7552 254.542 14.5432 254.542 10.5925C254.542 6.64175 251.33 3.42975 247.379 3.42975C243.429 3.42975 240.217 6.64175 240.217 10.5925C240.217 14.5432 243.429 17.7552 247.379 17.7552ZM247.379 3.74281C251.157 3.74281 254.231 6.81416 254.229 10.5922C254.229 14.3676 251.157 17.4416 247.379 17.4416C243.601 17.4416 240.527 14.3702 240.527 10.5922C240.527 6.81676 243.601 3.74281 247.379 3.74281ZM247.379 16.8201C250.814 16.8201 253.607 14.0277 253.607 10.5925C253.607 7.15725 250.812 4.36488 247.379 4.36488C243.947 4.36488 241.152 7.15725 241.152 10.5925C241.152 14.0277 243.947 16.8201 247.379 16.8201ZM259.472 20.6698H258.848V0.451093H259.472V20.6698ZM260.437 20.6698H259.813V0.451093H260.437V20.6698ZM261.399 20.6698H260.774V0.451093H261.399V20.6698ZM262.363 20.6698H261.739V0.451093H262.363V20.6698ZM265.203 0.451245C268.793 0.451245 271.71 3.37098 271.715 6.96044C271.715 10.5499 268.795 13.4696 265.206 13.4696H263.328V20.6696H262.703V0.450957L265.203 0.451245ZM263.325 4.81352V9.09638H265.203C266.383 9.09638 267.345 8.13728 267.345 6.95495C267.345 5.77262 266.383 4.81352 265.203 4.81352H263.325ZM263.325 9.71801L263.325 10.0316H265.203C266.898 10.0316 268.28 8.6527 268.28 6.95501C268.28 5.25732 266.901 3.87846 265.203 3.87846H263.325V4.18666H265.203C266.728 4.18666 267.969 5.4274 267.969 6.95239C267.969 8.47739 266.728 9.71813 265.203 9.71813L263.325 9.71801ZM263.325 10.6566V10.9674H265.203C267.417 10.9674 269.215 9.16877 269.215 6.95572C269.215 4.74267 267.416 2.94405 265.203 2.94405H263.325V3.2549H265.203C267.244 3.2549 268.904 4.91541 268.904 6.95583C268.904 8.99625 267.244 10.6568 265.203 10.6568L263.325 10.6566ZM263.325 11.5916V11.9024H265.203C267.932 11.9024 270.153 9.68397 270.153 6.95535C270.153 4.22672 267.932 2.00566 265.203 2.00566H263.325V2.31916H265.203C267.759 2.31916 269.839 4.39944 269.839 6.95522C269.839 9.511 267.759 11.5913 265.203 11.5913L263.325 11.5916ZM265.203 12.8457C268.447 12.8457 271.088 10.2049 271.088 6.96087C271.088 3.71689 268.447 1.07606 265.203 1.07606H263.325V1.38426H265.203C268.277 1.38426 270.777 3.8843 270.777 6.95573C270.777 10.0272 268.277 12.5272 265.203 12.5272H263.325V12.846L265.203 12.8457ZM273.797 20.6724H273.172V0.483346H273.797V20.6724ZM274.759 20.6724H274.134V0.483346H274.759V20.6724ZM275.723 20.6724H275.099V0.483346H275.723V20.6724ZM276.685 20.6724H276.06V0.483346H276.685V20.6724ZM284.971 1.10465L277.649 1.10468V1.44475H284.971V2.0691H277.649V2.40651H284.971V3.03086H277.649V3.37094H284.971V3.99529H277.649V4.3327H284.971V4.95705H277.649V8.83603H282.976V9.46038H277.649V9.80045H282.976V10.4222H277.649V10.7622H282.976V11.3866H277.649V11.724H282.976V12.3483H277.649V12.6884H282.976V13.3128H277.649V16.1955H284.971V16.8198H277.649V17.1572H284.971V17.7816H277.649V18.1216H284.971V18.7434H277.649V19.0834H284.971V19.7078H277.649V20.0452H284.971V20.6695H277.025V0.482637H284.971V1.10465ZM291.117 10.3158L291.683 10.0555L296.604 20.6695H295.916L291.117 10.3158ZM291.997 9.92595L292.563 9.66558L297.664 20.6702H296.976L291.997 9.92595ZM292.839 9.4682L293.408 9.20518L298.727 20.669H298.039L292.839 9.4682ZM287.053 20.6698H286.428V0.496578H287.053V20.6698ZM288.014 20.6698H287.39V0.496578H288.014V20.6698ZM288.979 20.6698H288.354V0.496578H288.979V20.6698ZM289.941 20.6698H289.316V0.496578H289.941V20.6698ZM296.057 12.6248L299.79 20.6721H299.102L293.687 8.99241L294.006 8.75861C294.577 8.35741 294.925 7.69851 294.925 6.99976C294.925 5.8175 293.963 4.85834 292.784 4.85834H290.905V10.6608L295.544 20.6691H294.856L290.905 12.146V20.6691H290.281V0.495915H292.781C296.37 0.495915 299.29 3.41565 299.29 7.00511C299.29 9.32451 298.055 11.4557 296.057 12.6248ZM294.465 9.18663L294.598 9.47889C295.382 8.90237 295.858 7.9778 295.858 7.00008C295.858 5.30238 294.476 3.92352 292.781 3.92352H290.903V4.23438H292.781C294.306 4.23438 295.547 5.47512 295.547 7.00011C295.547 7.85827 295.143 8.66326 294.465 9.18663ZM294.866 10.0559L294.996 10.3428C296.112 9.60151 296.792 8.34481 296.792 7.00054C296.792 4.78741 294.994 2.98886 292.781 2.98886H290.902V3.29971H292.781C294.821 3.29971 296.482 4.96022 296.482 7.00065C296.482 8.21749 295.868 9.3703 294.866 10.0559ZM295.265 10.9115L295.398 11.1958C296.845 10.2925 297.733 8.70898 297.733 6.99815C297.733 4.27219 295.512 2.05106 292.783 2.05106H290.905V2.36191H292.783C295.339 2.36191 297.419 4.44219 297.419 6.99797C297.419 8.58678 296.598 10.0612 295.265 10.9115ZM295.661 11.767L295.797 12.0566C297.571 10.9939 298.669 9.08087 298.669 7.00587C298.669 3.76181 296.028 1.12105 292.784 1.12105H290.905V1.42926H292.784C295.855 1.42926 298.355 3.9293 298.355 7.00073C298.355 8.9535 297.327 10.7574 295.661 11.767ZM313.048 1.20573H300.521V0.581377H313.048V1.20573ZM313.048 2.17031H300.521V1.54596H313.048V2.17031ZM313.048 3.132H300.521V2.50765H313.048V3.132ZM313.048 4.09658H300.521V3.47223H313.048V4.09658ZM300.521 5.05828V4.43393H313.051V5.05828H309.023V20.6699H308.401V5.05828H308.061V20.6699H307.437V5.05828H307.1V20.6699H306.475V5.05828H306.135V20.6699H305.511V5.05828H305.173V20.6699H304.549V5.05828H300.521ZM314.402 20.6698H313.777V0.485749H314.402V20.6698ZM315.366 20.6698H314.742V0.485749H315.366V20.6698ZM316.328 20.6698H315.704V0.485749H316.328V20.6698ZM317.292 20.6698H316.668V0.485749H317.292V20.6698ZM318.254 20.6698H317.63V0.485749H318.254V20.6698ZM320.351 20.6724H319.727V0.483346H320.351V20.6724ZM321.313 20.6724H320.688V0.483346H321.313V20.6724ZM322.277 20.6724H321.653V0.483346H322.277V20.6724ZM323.239 20.6724H322.614V0.483346H323.239V20.6724ZM331.525 1.10465L324.203 1.10468V1.44475H331.525V2.0691H324.203V2.40651H331.525V3.03086H324.203V3.37094H331.525V3.99529H324.203V4.3327H331.525V4.95705H324.203V8.83603H329.53V9.46038H324.203V9.80045H329.53V10.4222H324.203V10.7622H329.53V11.3866H324.203V11.724H329.53V12.3483H324.203V12.6884H329.53V13.3128H324.203V16.1955H331.525V16.8198H324.203V17.1572H331.525V17.7816H324.203V18.1216H331.525V18.7434H324.203V19.0834H331.525V19.7078H324.203V20.0452H331.525V20.6695H323.579V0.482637H331.525V1.10465ZM339.239 8.15635C342.669 8.18291 345.453 10.9779 345.453 14.4131C345.453 17.8617 342.648 20.6699 339.197 20.6699C336.622 20.6699 334.345 19.1263 333.389 16.7325L333.888 16.5013L333.955 16.4747C334.808 18.6427 336.867 20.0454 339.194 20.0454C342.3 20.0454 344.827 17.5188 344.827 14.413C344.827 11.3072 342.3 8.78061 339.194 8.78061V8.77263C337.855 8.74871 336.771 7.65412 336.771 6.3071C336.771 4.94679 337.879 3.8389 339.239 3.8389C340.246 3.8389 341.112 4.43668 341.495 5.30281L340.929 5.56583C340.645 4.91491 339.997 4.4632 339.239 4.4632C338.224 4.4632 337.395 5.29212 337.395 6.3097C337.395 7.32727 338.221 8.15635 339.239 8.15635ZM336.447 6.30949C336.447 7.85044 337.701 9.10187 339.239 9.10447C342.149 9.12838 344.505 11.5009 344.505 14.4128C344.505 17.3407 342.122 19.7238 339.194 19.7238C337.005 19.7238 335.039 18.3662 334.247 16.3336L334.813 16.0706C335.504 17.8853 337.249 19.0995 339.194 19.0995C341.779 19.0995 343.881 16.9979 343.881 14.4129C343.881 11.8279 341.779 9.72632 339.194 9.72632V9.72367C337.332 9.69975 335.823 8.17738 335.823 6.30951C335.823 4.42583 337.356 2.89275 339.239 2.89275C340.597 2.89275 341.806 3.70572 342.351 4.90661L341.785 5.16963C341.344 4.18656 340.35 3.51706 339.239 3.51706C337.698 3.51706 336.447 4.76847 336.447 6.30949ZM343.209 4.51101L342.643 4.77668C342.045 3.4589 340.711 2.57417 339.239 2.57417C337.177 2.57417 335.501 4.25064 335.501 6.31236C335.501 8.37408 337.177 10.0505 339.239 10.0505C341.622 10.0745 343.556 12.0193 343.556 14.4105C343.556 16.815 341.601 18.7731 339.194 18.7731C337.377 18.7731 335.74 17.6173 335.11 15.9303L335.679 15.6673C336.205 17.1365 337.621 18.1488 339.194 18.1488C341.255 18.1488 342.932 16.4723 342.932 14.4106C342.932 12.3489 341.255 10.6724 339.194 10.6724V10.6697C336.811 10.6458 334.877 8.70101 334.877 6.30978C334.877 3.90533 336.832 1.94721 339.239 1.94721C340.955 1.94721 342.51 2.97807 343.209 4.51101ZM344.072 4.11247L343.503 4.37283C342.749 2.71232 341.08 1.62298 339.236 1.62298C336.651 1.62298 334.55 3.72455 334.55 6.30958C334.55 8.8946 336.651 10.9962 339.236 10.9962V10.9988C341.099 11.0227 342.608 12.5451 342.608 14.413C342.608 16.2967 341.075 17.8297 339.191 17.8297C337.733 17.8297 336.441 16.8865 335.968 15.5342L336.537 15.2712C336.906 16.4083 337.98 17.2054 339.194 17.2054C340.735 17.2054 341.986 15.954 341.986 14.413C341.986 12.872 340.735 11.6206 339.194 11.6206C336.284 11.5967 333.928 9.22416 333.928 6.31223C333.928 3.3844 336.311 1.00125 339.239 1.00125C341.327 1.00125 343.214 2.23406 344.072 4.11247ZM339.194 12.5663C335.767 12.5424 332.982 9.74473 332.982 6.31209C332.982 2.86097 335.788 0.0553047 339.239 0.0553047C341.715 0.0553047 343.91 1.48203 344.927 3.71638L344.362 3.9794C343.445 1.96555 341.468 0.679611 339.239 0.679611C336.133 0.679611 333.607 3.20622 333.607 6.31202C333.607 9.41781 336.133 11.9444 339.239 11.9444V11.9471C340.578 11.971 341.662 13.0656 341.662 14.4126C341.662 15.7729 340.557 16.8808 339.194 16.8808C338.081 16.8808 337.143 16.1501 336.835 15.1326L337.406 14.867C337.608 15.672 338.33 16.2565 339.194 16.2565C340.212 16.2565 341.04 15.4303 341.04 14.4127C341.04 13.3951 340.212 12.5663 339.194 12.5663Z" fill="#111111"/>
<path d="M82.1751 40.2641L79.4573 44.5726V48.532H77.735V44.6126L75 40.264H76.8996L78.5876 43.0792L80.2812 40.264L82.1751 40.2641ZM88.6895 48.6463C86.2577 48.6463 84.4611 46.987 84.4611 44.395C84.4611 41.7973 86.2577 40.1494 88.6895 40.1494C91.1155 40.1494 92.9121 41.7973 92.9121 44.395C92.9121 46.9869 91.1155 48.6463 88.6895 48.6463ZM88.6895 47.0728C90.1141 47.0728 91.207 46.0715 91.207 44.3951C91.207 42.7243 90.1142 41.7287 88.6895 41.7287C87.2647 41.7287 86.1719 42.7243 86.1719 44.3951C86.1719 46.0715 87.2647 47.0728 88.6895 47.0728ZM99.2432 48.6463C97.4294 48.6463 96.0104 47.7194 96.0104 45.6367V40.2639H97.727V45.4021C97.727 46.6608 98.3964 47.13 99.2432 47.13C100.096 47.13 100.771 46.6551 100.771 45.4021V40.2639H102.487V45.6367C102.487 47.7194 101.063 48.6463 99.2432 48.6463ZM110.512 48.5319L108.361 44.8928H107.863V48.5319H106.146V40.2641H109.145C111.016 40.2641 111.805 41.3684 111.805 42.7359C111.805 43.8459 111.176 44.5669 110.054 44.8072L112.543 48.5321L110.512 48.5319ZM107.863 41.6884V43.6624H108.876C109.791 43.6624 110.163 43.2734 110.163 42.6783C110.163 42.0889 109.791 41.6884 108.876 41.6884L107.863 41.6884ZM123.667 40.2641C125.286 40.2641 126.293 41.4657 126.293 42.9361C126.293 44.441 125.286 45.5682 123.667 45.5682H121.944V48.532H120.228V40.2643L123.667 40.2641ZM123.38 44.1318C124.239 44.1318 124.639 43.6569 124.639 42.9131C124.639 42.1978 124.239 41.7 123.38 41.7H121.944V44.1318H123.38ZM134.959 48.5319L134.358 46.8267H130.885L130.284 48.5319H128.528L131.571 40.2641H133.671L136.715 48.5319H134.959ZM131.388 45.3906H133.854L132.624 41.8832L131.388 45.3906ZM144.013 48.5319L141.862 44.8928H141.364V48.5319H139.647V40.2641H142.646C144.517 40.2641 145.306 41.3684 145.306 42.7359C145.306 43.8459 144.677 44.5669 143.555 44.8072L146.044 48.5321L144.013 48.5319ZM141.364 41.6884V43.6624H142.377C143.292 43.6624 143.664 43.2734 143.664 42.6783C143.664 42.0889 143.292 41.6884 142.377 41.6884L141.364 41.6884ZM153.789 40.2641V41.7746H151.826V48.5319H150.127V41.7746H148.153V40.2641H153.789ZM162.426 40.2641H164.137V48.5319H162.151L158.489 42.6212V48.5319H156.778V40.2641H158.741L162.426 46.1402V40.2641ZM172.762 41.7746H169.695V43.6513H172.413V45.1447H169.695V47.0157H172.762V48.532H167.967V40.2642H172.762V41.7746ZM180.587 48.5319L178.435 44.8928H177.937V48.5319H176.221V40.2641H179.219C181.09 40.2641 181.88 41.3684 181.88 42.7359C181.88 43.8459 181.25 44.5669 180.129 44.8072L182.618 48.5321L180.587 48.5319ZM177.937 41.6884V43.6624H178.95C179.866 43.6624 180.238 43.2734 180.238 42.6783C180.238 42.0889 179.866 41.6884 178.95 41.6884L177.937 41.6884ZM188.314 48.6463C186.54 48.6463 185.155 47.7937 184.904 46.2431L186.677 45.8369C186.792 46.7638 187.473 47.2444 188.383 47.2444C189.081 47.2444 189.636 46.9354 189.63 46.2374C189.624 45.4592 188.709 45.2132 187.702 44.9042C186.489 44.5265 185.19 44.0802 185.19 42.5583C185.19 41.0191 186.449 40.1494 188.108 40.1494C189.561 40.1494 191.026 40.7388 191.358 42.3237L189.699 42.7356C189.544 41.9117 188.989 41.5512 188.211 41.5512C187.519 41.5512 186.929 41.8373 186.929 42.5182C186.929 43.1533 187.742 43.365 188.68 43.6454C189.927 44.023 191.404 44.5036 191.404 46.1515C191.404 47.908 189.933 48.6463 188.314 48.6463ZM199.414 48.5319V40.2641H201.131V48.5319H199.414ZM210.603 40.2641H212.314V48.5319H210.328L206.666 42.6212V48.5319H204.956V40.2641H206.918L210.603 46.1402V40.2641ZM224.318 40.2641C225.937 40.2641 226.944 41.4657 226.944 42.9361C226.944 44.441 225.937 45.5682 224.318 45.5682H222.596V48.532H220.879V40.2643L224.318 40.2641ZM224.032 44.1318C224.89 44.1318 225.291 43.6569 225.291 42.9131C225.291 42.1978 224.89 41.7 224.032 41.7H222.596V44.1318H224.032ZM234.443 48.5319L232.291 44.8928H231.793V48.5319H230.077V40.2641H233.075C234.946 40.2641 235.736 41.3684 235.736 42.7359C235.736 43.8459 235.106 44.5669 233.985 44.8072L236.474 48.5321L234.443 48.5319ZM231.794 41.6884V43.6624H232.806C233.722 43.6624 234.094 43.2734 234.094 42.6783C234.094 42.0889 233.722 41.6884 232.806 41.6884L231.794 41.6884ZM243.085 48.6463C240.654 48.6463 238.857 46.987 238.857 44.395C238.857 41.7973 240.654 40.1494 243.085 40.1494C245.511 40.1494 247.308 41.7973 247.308 44.395C247.308 46.9869 245.511 48.6463 243.085 48.6463ZM243.085 47.0728C244.51 47.0728 245.603 46.0715 245.603 44.3951C245.603 42.7243 244.51 41.7287 243.085 41.7287C241.661 41.7287 240.568 42.7243 240.568 44.3951C240.568 46.0715 241.661 47.0728 243.085 47.0728ZM254.017 40.2641C255.636 40.2641 256.643 41.4657 256.643 42.9361C256.643 44.441 255.636 45.5682 254.017 45.5682H252.295V48.532H250.578V40.2643L254.017 40.2641ZM253.731 44.1318C254.589 44.1318 254.989 43.6569 254.989 42.9131C254.989 42.1978 254.589 41.7 253.731 41.7H252.295V44.1318H253.731ZM264.571 41.7746H261.504V43.6513H264.222V45.1447H261.504V47.0157H264.571V48.532H259.776V40.2642H264.571V41.7746ZM272.395 48.5319L270.244 44.8928H269.746V48.5319H268.029V40.2641H271.028C272.899 40.2641 273.688 41.3684 273.688 42.7359C273.688 43.8459 273.059 44.5669 271.937 44.8072L274.426 48.5321L272.395 48.5319ZM269.746 41.6884V43.6624H270.759C271.674 43.6624 272.046 43.2734 272.046 42.6783C272.046 42.0889 271.674 41.6884 270.759 41.6884L269.746 41.6884ZM282.171 40.2641V41.7746H280.208V48.5319H278.509V41.7746H276.535V40.2641H282.171ZM291.363 40.2641L288.645 44.5726V48.532H286.923V44.6126L284.188 40.264H286.087L287.775 43.0792L289.469 40.264L291.363 40.2641Z" fill="#111111"/>
</g>
<defs>
<clipPath id="clip0_11_24">
<rect width="345.15" height="48.6463" fill="white"/>
</clipPath>
</defs>
</svg>
