<svg width="346" height="49" viewBox="0 0 346 49" fill="none" xmlns="http://www.w3.org/2000/svg">
<g clip-path="url(#clip0_11_25)">
<path d="M56.1616 28.1348C56.1616 28.1348 44.6577 10.0485 44.6345 9.99904C43.8939 8.8806 43.0526 8.42022 42.4496 8.23131C42.4496 8.23131 41.8147 8.10433 41.7884 8.10308C41.6545 8.09995 41.333 8.09432 41.2561 8.10433H27.2225C28.3021 7.6502 29.054 6.70253 29.054 5.59786C29.054 4.05595 27.6003 2.80115 25.8138 2.80115H21.0248C19.2383 2.80115 17.7846 4.05532 17.7846 5.59786C17.7846 6.70191 18.5358 7.64957 19.6149 8.10433C18.2043 8.1037 14.9716 8.10308 14.9247 8.10183C14.4593 8.11246 13.4284 8.2163 12.5696 8.86684C12.5615 8.8731 12.5533 8.87935 12.5446 8.88561C12.4939 8.92501 12.4445 8.96943 12.3945 9.01321C12.1843 9.20462 11.9954 9.41918 11.8427 9.66L0.473872 27.5681L0.156732 28.2399C-0.0302988 28.7985 -0.0515664 29.3959 0.101687 29.9757C0.328126 30.8321 0.901105 31.547 1.71741 31.9893C1.95636 32.1175 2.20782 32.2163 2.47179 32.2877L3.33689 32.2914V46.6077H29.181H30.432H37.2696H45.8243H52.867V32.3834C52.8833 32.3834 52.8983 32.3884 52.9146 32.3884C53.5201 32.3884 54.1174 32.237 54.6423 31.9499C55.4554 31.5051 56.0247 30.7895 56.2467 29.9313C56.4025 29.3283 56.3706 28.709 56.1616 28.1348ZM20.9153 8.38519C20.9529 8.38581 20.9866 8.39457 21.0248 8.39457H22.4479V12.8883H20.9153V8.38519ZM23.6995 8.39457H25.8144C25.8513 8.39457 25.8864 8.38581 25.9233 8.38519V12.8883H23.6995V8.39457ZM19.0363 5.59786C19.0363 4.7459 19.9283 4.05219 21.0254 4.05219H25.8144C26.911 4.05219 27.8036 4.74527 27.8036 5.59786C27.8036 6.45045 26.911 7.14353 25.8144 7.14353H23.6995H22.4485H21.0254C19.9276 7.14353 19.0363 6.44982 19.0363 5.59786ZM29.1804 32.4196V33.8859H4.58731V32.2977L29.1804 32.4196ZM4.58731 35.1363H6.22743V37.8167H4.58731V35.1363ZM17.4649 37.8167H15.9537V35.1363H17.4649V37.8167ZM4.58731 39.0677H6.22743V41.7518H4.58731V39.0677ZM7.47847 35.2307H10.4641V41.7524H7.47847V35.2307ZM11.7151 35.2307H14.702V41.7524H11.7151V35.2307ZM15.9537 39.0677H17.4649V41.7518H15.9537V39.0677ZM18.716 35.2307H21.701V41.7524H18.716V35.2307ZM22.952 35.2307H25.9383V41.7524H22.952V35.2307ZM27.1899 39.0677H29.181V41.7518H27.1899V39.0677ZM30.4314 39.0677H37.269V41.7518H30.4314V39.0677ZM45.8236 39.0677H51.6153V41.7518H45.8236V39.0677ZM45.8236 37.8167V35.1363H51.6153V37.8167H45.8236ZM37.269 37.8167H30.4314V35.1363H37.269V37.8167ZM29.1804 37.8167H27.1899V35.1363H29.181L29.1804 37.8167ZM4.58731 45.3561V43.0029H6.22743H15.9537H17.4649H27.1899H29.181V45.3561H4.58731ZM30.4314 45.3561V43.0029H37.269V45.3561H30.4314ZM38.52 45.3561V35.2307H44.5726V45.3567L38.52 45.3561ZM45.8236 45.3561V43.0029H51.6153V45.3561H45.8236ZM51.6153 33.8852H30.4314V32.3984C31.2471 32.3371 32.0046 32.0124 32.5751 31.4795C32.6307 31.4232 32.7227 31.3256 32.8297 31.2049H37.9715H45.1212H50.3017C50.4919 31.4176 50.6539 31.5983 50.6539 31.5983C50.9392 31.8317 51.2657 32.0124 51.6147 32.1457L51.6153 33.8852ZM40.0169 19.9674H42.9844C43.3866 20.5991 43.8457 21.321 44.3349 22.0879H38.6714L40.0169 19.9674ZM40.8113 18.7163L41.4988 17.6329C41.4988 17.6329 41.7615 18.0458 42.1881 18.7163H40.8113ZM43.8701 26.0199H42.2675V23.3383H43.8701V26.0199ZM41.0165 26.0199H39.2225V23.3383H41.0165V26.0199ZM39.2225 27.271H41.0165V29.9538H39.2225V27.271ZM42.2675 27.271H43.8701V29.9538H42.2675V27.271ZM45.1212 27.271H47.6477C48.3476 28.3619 48.9588 29.3089 49.3797 29.9538H45.1212V27.271ZM45.1212 26.0199V23.3383H45.1331C45.7035 24.2328 46.2884 25.1473 46.8464 26.0199H45.1212ZM37.8776 23.3383H37.9715V26.0199H36.1756L37.8776 23.3383ZM35.3812 27.271H37.9715V29.9538H33.6785C33.7129 29.8656 33.736 29.8344 33.7517 29.8375L35.3812 27.271ZM55.0351 29.6167C54.9006 30.1359 54.5478 30.5744 54.0411 30.8508C53.6996 31.0379 53.3099 31.1367 52.9133 31.1367C52.1408 31.1367 51.4171 30.7626 51.0261 30.1615L41.4931 15.3072L32.1973 29.9526L32.0471 30.1859C31.8326 30.5168 31.5129 30.777 31.1414 30.9447C31.127 30.9547 31.1082 30.9628 31.0901 30.9716C31.0895 30.9716 31.0388 30.9947 31.0069 31.0047C30.9956 31.0085 30.9812 31.0097 30.9694 31.0135C30.6729 31.1211 28.9151 31.1711 28.9014 31.1711L3.42947 31.1586C3.021 31.1586 2.64444 31.0673 2.31166 30.8884C1.80311 30.6138 1.44781 30.1759 1.31082 29.6567C1.18322 29.1744 1.26203 28.6696 1.53351 28.2361L12.8986 10.3299C13.1807 9.88582 13.6474 9.56868 14.1822 9.42731C14.1928 9.4223 14.251 9.40917 14.2685 9.40729C14.5175 9.35099 15.4257 9.35725 15.5746 9.356L19.6643 9.35537V14.1394H27.1737V9.35412C29.8834 9.35225 40.1902 9.34411 41.5989 9.3535C42.0423 9.39916 42.8499 9.63373 43.5686 10.6608L54.8299 28.2368C55.0832 28.659 55.1564 29.1475 55.0351 29.6167Z" fill="white"/>
<path d="M74.6967 0.485901H75.3582L82.6222 20.6699H81.958L74.6967 0.485901ZM75.6638 0.485901H76.3253L83.5893 20.6699H82.9251L75.6638 0.485901ZM76.6309 0.485901H77.2951L84.5562 20.6699H83.8919L76.6309 0.485901ZM77.5979 0.485901H78.2595L85.5234 20.6699H84.8592L77.5979 0.485901ZM106.586 0.485901L107.247 0.485844L99.9861 20.6699H99.2794L92.9057 2.9565L92.7542 3.37895L98.9738 20.6692H98.3122L92.4219 4.30022L92.2705 4.72267L98.0065 20.6686H97.345L91.9384 5.64393L91.787 6.06635L97.0396 20.6679H96.3781L91.4549 6.98762L91.2663 7.51366L91.3327 7.48974L96.0724 20.6675H95.4109L90.9712 8.33159L86.5315 20.6675H85.8248L78.5638 0.48353H79.228L84.2441 14.4317L88.7048 2.03509H89.3664L84.5761 15.3515L84.7276 15.774L89.6721 2.0359H90.3336L85.0599 16.6967L85.2113 17.1191L90.6393 2.03671H91.3008L85.5434 18.0418L85.6948 18.4643L91.6062 2.03749H92.2678L86.0427 19.3444L86.0082 19.3337L86.1782 19.8093L92.5733 2.03821H93.2375L97.6983 14.4348L102.717 0.486645H103.379L98.0277 15.3539L98.1818 15.7764L103.684 0.48601H104.346L98.5139 16.6976L98.6653 17.1201L104.651 0.485374H105.313L98.9948 18.0413L99.1489 18.4638L105.618 0.484739H106.28L99.4942 19.3432L99.4596 19.3325L99.6323 19.8081L106.586 0.485901ZM111.361 0.477959H112.038L103.618 20.6699H102.941L111.361 0.477959ZM112.325 0.477959H113.002L104.582 20.6699H103.908L112.325 0.477959ZM113.292 0.477959H113.967L105.547 20.6699H104.872L113.292 0.477959ZM114.256 0.477959H114.934L106.512 20.6699H105.837L114.256 0.477959ZM123.675 20.6698L115.63 1.11821L115.457 1.53532L123.33 20.6696H122.655L115.117 2.34829L114.945 2.7654L122.312 20.6722H121.637L114.605 3.58125L114.432 3.99573L121.292 20.6723H120.617L114.092 4.81086L113.919 5.22534L120.274 20.6695H119.6L118.085 16.9818H109.02L107.482 20.6695H106.804L115.224 0.477518H116.042L124.35 20.6695L123.675 20.6698ZM117.824 16.3577L117.691 16.0336H109.413L109.277 16.3577H117.824ZM117.434 15.4093L117.299 15.0852H109.807L109.671 15.4093H117.434ZM117.043 14.4606L116.907 14.1365H110.202L110.066 14.4606H117.043ZM116.653 13.5122L116.52 13.1881H110.598L110.463 13.5122H116.653ZM116.262 12.5641L113.579 6.04163L110.858 12.5641H116.262ZM126.441 20.6698H125.816V0.485749H126.441V20.6698ZM127.403 20.6698H126.778V0.485749H127.403V20.6698ZM128.364 20.6698H127.74V0.485749H128.364V20.6698ZM129.329 20.6698H128.704V0.485749H129.329V20.6698ZM138.2 16.812L130.291 16.812V17.1521H138.2V17.7738H130.291V18.1139H138.2V18.7382H130.291V19.0757H138.2V19.7H130.291V20.0401H138.2V20.6644H130.291V20.6697H129.666V0.485723H130.291V16.1876H138.2V16.812ZM140.271 20.6698H139.647V0.51535H140.271V20.6698ZM141.236 20.6698H140.612V0.51535H141.236V20.6698ZM142.198 20.6698H141.573V0.51535H142.198V20.6698ZM143.162 20.6698H142.538V0.51535H143.162V20.6698ZM157.038 0.514781L149.092 11.1606L156.725 20.6692H155.925L146.215 8.5751L146.005 8.85406L155.489 20.6687H154.69L145.619 9.37173L145.412 9.65068L154.254 20.6683H153.454L145.024 10.1662L144.817 10.4478L153.021 20.6683H152.221L144.428 10.9655L144.221 11.2444L151.785 20.6679H150.985L144.122 12.1181V20.6679H143.498V0.513474H144.122V10.3333L151.453 0.513474H152.231L146.599 8.05613L146.819 8.32977L152.654 0.513488H153.432L147.223 8.83228L147.441 9.10593L153.854 0.513503H154.635L147.845 9.60772L148.063 9.87872L155.058 0.513033H155.837L148.466 10.3834L148.687 10.657L156.259 0.513048H157.038L157.038 0.514781ZM159.13 20.6724H158.506V0.483346H159.13V20.6724ZM160.092 20.6724H159.467V0.483346H160.092V20.6724ZM161.056 20.6724H160.432V0.483346H161.056V20.6724ZM162.018 20.6724H161.394V0.483346H162.018V20.6724ZM170.304 1.10465L162.982 1.10468V1.44475H170.304V2.0691H162.982V2.40651H170.304V3.03086H162.982V3.37094H170.304V3.99529H162.982V4.3327H170.304V4.95705H162.982V8.83603H168.309V9.46038H162.982V9.80045H168.309V10.4222H162.982V10.7622H168.309V11.3866H162.982V11.724H168.309V12.3483H162.982V12.6884H168.309V13.3128H162.982V16.1955H170.304V16.8198H162.982V17.1572H170.304V17.7816H162.982V18.1216H170.304V18.7434H162.982V19.0834H170.304V19.7078H162.982V20.0452H170.304V20.6695H162.358V0.482637H170.304V1.10465ZM176.45 10.3158L177.016 10.0555L181.937 20.6695H181.249L176.45 10.3158ZM177.33 9.92595L177.896 9.66558L182.997 20.6702H182.309L177.33 9.92595ZM178.172 9.4682L178.741 9.20518L184.06 20.669H183.372L178.172 9.4682ZM172.386 20.6698H171.761V0.496578H172.386V20.6698ZM173.347 20.6698H172.723V0.496578H173.347V20.6698ZM174.312 20.6698H173.688V0.496578H174.312V20.6698ZM175.274 20.6698H174.649V0.496578H175.274V20.6698ZM181.39 12.6248L185.123 20.6721H184.435L179.02 8.99241L179.339 8.75861C179.91 8.35741 180.258 7.69851 180.258 6.99976C180.258 5.8175 179.296 4.85834 178.117 4.85834H176.238V10.6608L180.877 20.6691H180.189L176.238 12.146V20.6691H175.614V0.495915H178.114C181.703 0.495915 184.623 3.41565 184.623 7.00511C184.623 9.32451 183.388 11.4557 181.39 12.6248ZM179.799 9.18663L179.931 9.47889C180.715 8.90237 181.191 7.9778 181.191 7.00008C181.191 5.30238 179.809 3.92352 178.114 3.92352H176.236V4.23438H178.114C179.639 4.23438 180.88 5.47512 180.88 7.00011C180.88 7.85827 180.476 8.66326 179.799 9.18663ZM180.199 10.0559L180.329 10.3428C181.445 9.60151 182.125 8.34481 182.125 7.00054C182.125 4.78741 180.327 2.98886 178.114 2.98886H176.235V3.29971H178.114C180.154 3.29971 181.815 4.96022 181.815 7.00065C181.815 8.21749 181.201 9.3703 180.199 10.0559ZM180.598 10.9115L180.731 11.1958C182.179 10.2925 183.066 8.70898 183.066 6.99815C183.066 4.27219 180.845 2.05106 178.116 2.05106H176.238V2.36191H178.116C180.672 2.36191 182.752 4.44219 182.752 6.99797C182.752 8.58678 181.931 10.0612 180.598 10.9115ZM180.994 11.767L181.13 12.0566C182.904 10.9939 184.002 9.08087 184.002 7.00587C184.002 3.76181 181.361 1.12105 178.117 1.12105H176.238V1.42926H178.117C181.188 1.42926 183.688 3.9293 183.688 7.00073C183.688 8.9535 182.66 10.7574 180.994 11.767ZM192.833 8.15635C196.263 8.18291 199.048 10.9779 199.048 14.4131C199.048 17.8617 196.242 20.6699 192.791 20.6699C190.216 20.6699 187.939 19.1263 186.983 16.7325L187.483 16.5013L187.549 16.4747C188.402 18.6427 190.461 20.0454 192.788 20.0454C195.894 20.0454 198.421 17.5188 198.421 14.413C198.421 11.3072 195.894 8.78061 192.788 8.78061V8.77263C191.449 8.74871 190.365 7.65412 190.365 6.3071C190.365 4.94679 191.473 3.8389 192.834 3.8389C193.841 3.8389 194.707 4.43668 195.089 5.30281L194.523 5.56583C194.239 4.91491 193.591 4.4632 192.834 4.4632C191.819 4.4632 190.99 5.29212 190.99 6.3097C190.99 7.32727 191.816 8.15635 192.833 8.15635ZM190.041 6.30949C190.041 7.85044 191.295 9.10187 192.833 9.10447C195.743 9.12838 198.099 11.5009 198.099 14.4128C198.099 17.3407 195.716 19.7238 192.788 19.7238C190.599 19.7238 188.633 18.3662 187.841 16.3336L188.407 16.0706C189.098 17.8853 190.844 19.0995 192.788 19.0995C195.373 19.0995 197.475 16.9979 197.475 14.4129C197.475 11.8279 195.373 9.72632 192.788 9.72632V9.72367C190.926 9.69975 189.417 8.17738 189.417 6.30951C189.417 4.42583 190.95 2.89275 192.834 2.89275C194.191 2.89275 195.4 3.70572 195.945 4.90661L195.379 5.16963C194.938 4.18656 193.944 3.51706 192.834 3.51706C191.293 3.51706 190.041 4.76847 190.041 6.30949ZM196.803 4.51101L196.237 4.77668C195.639 3.4589 194.305 2.57417 192.833 2.57417C190.772 2.57417 189.095 4.25064 189.095 6.31236C189.095 8.37408 190.772 10.0505 192.833 10.0505C195.217 10.0745 197.151 12.0193 197.151 14.4105C197.151 16.815 195.195 18.7731 192.788 18.7731C190.971 18.7731 189.334 17.6173 188.705 15.9303L189.273 15.6673C189.799 17.1365 191.215 18.1488 192.788 18.1488C194.85 18.1488 196.526 16.4723 196.526 14.4106C196.526 12.3489 194.85 10.6724 192.788 10.6724V10.6697C190.405 10.6458 188.471 8.70101 188.471 6.30978C188.471 3.90533 190.426 1.94721 192.833 1.94721C194.55 1.94721 196.104 2.97807 196.803 4.51101ZM197.666 4.11247L197.098 4.37283C196.343 2.71232 194.675 1.62298 192.831 1.62298C190.246 1.62298 188.144 3.72455 188.144 6.30958C188.144 8.8946 190.246 10.9962 192.831 10.9962V10.9988C194.693 11.0227 196.202 12.5451 196.202 14.413C196.202 16.2967 194.669 17.8297 192.785 17.8297C191.327 17.8297 190.036 16.8865 189.563 15.5342L190.131 15.2712C190.501 16.4083 191.574 17.2054 192.788 17.2054C194.329 17.2054 195.581 15.954 195.581 14.413C195.581 12.872 194.329 11.6206 192.788 11.6206C189.879 11.5967 187.522 9.22416 187.522 6.31223C187.522 3.3844 189.905 1.00125 192.833 1.00125C194.921 1.00125 196.808 2.23406 197.666 4.11247ZM192.788 12.5663C189.361 12.5424 186.577 9.74473 186.577 6.31209C186.577 2.86097 189.382 0.0553047 192.833 0.0553047C195.309 0.0553047 197.504 1.48203 198.522 3.71638L197.956 3.9794C197.039 1.96555 195.062 0.679611 192.833 0.679611C189.728 0.679611 187.201 3.20622 187.201 6.31202C187.201 9.41781 189.728 11.9444 192.833 11.9444V11.9471C194.172 11.971 195.256 13.0656 195.256 14.4126C195.256 15.7729 194.151 16.8808 192.788 16.8808C191.675 16.8808 190.737 16.1501 190.429 15.1326L191 14.867C191.202 15.672 191.925 16.2565 192.788 16.2565C193.806 16.2565 194.635 15.4303 194.635 14.4127C194.635 13.3951 193.806 12.5663 192.788 12.5663ZM208.543 20.6698H207.919V0.451093H208.543V20.6698ZM209.507 20.6698H208.883V0.451093H209.507V20.6698ZM210.469 20.6698H209.845V0.451093H210.469V20.6698ZM211.434 20.6698H210.809V0.451093H211.434V20.6698ZM214.274 0.451245C217.863 0.451245 220.781 3.37098 220.786 6.96044C220.786 10.5499 217.866 13.4696 214.277 13.4696H212.398V20.6696H211.774V0.450957L214.274 0.451245ZM212.396 4.81352V9.09638H214.274C215.454 9.09638 216.415 8.13728 216.415 6.95495C216.415 5.77262 215.454 4.81352 214.274 4.81352H212.396ZM212.396 9.71801L212.396 10.0316H214.274C215.969 10.0316 217.351 8.6527 217.351 6.95501C217.351 5.25732 215.972 3.87846 214.274 3.87846H212.396V4.18666H214.274C215.799 4.18666 217.04 5.4274 217.04 6.95239C217.04 8.47739 215.799 9.71813 214.274 9.71813L212.396 9.71801ZM212.396 10.6566V10.9674H214.274C216.487 10.9674 218.286 9.16877 218.286 6.95572C218.286 4.74267 216.487 2.94405 214.274 2.94405H212.396V3.2549H214.274C216.314 3.2549 217.975 4.91541 217.975 6.95583C217.975 8.99625 216.314 10.6568 214.274 10.6568L212.396 10.6566ZM212.396 11.5916V11.9024H214.274C217.003 11.9024 219.224 9.68397 219.224 6.95535C219.224 4.22672 217.003 2.00566 214.274 2.00566H212.396V2.31916H214.274C216.83 2.31916 218.91 4.39944 218.91 6.95522C218.91 9.511 216.83 11.5913 214.274 11.5913L212.396 11.5916ZM214.274 12.8457C217.518 12.8457 220.159 10.2049 220.159 6.96087C220.159 3.71689 217.518 1.07606 214.274 1.07606H212.396V1.38426H214.274C217.348 1.38426 219.848 3.8843 219.848 6.95573C219.848 10.0272 217.348 12.5272 214.274 12.5272H212.396V12.846L214.274 12.8457ZM226.932 10.3158L227.498 10.0555L232.419 20.6695H231.73L226.932 10.3158ZM227.812 9.92595L228.377 9.66558L233.479 20.6702H232.79L227.812 9.92595ZM228.654 9.4682L229.223 9.20518L234.542 20.669H233.854L228.654 9.4682ZM222.867 20.6698H222.243V0.496578H222.867V20.6698ZM223.829 20.6698H223.205V0.496578H223.829V20.6698ZM224.794 20.6698H224.169V0.496578H224.794V20.6698ZM225.755 20.6698H225.131V0.496578H225.755V20.6698ZM231.871 12.6248L235.604 20.6721H234.916L229.502 8.99241L229.821 8.75861C230.392 8.35741 230.74 7.69851 230.74 6.99976C230.74 5.8175 229.778 4.85834 228.598 4.85834H226.72V10.6608L231.359 20.6691H230.671L226.72 12.146V20.6691H226.096V0.495915H228.596C232.185 0.495915 235.105 3.41565 235.105 7.00511C235.105 9.32451 233.869 11.4557 231.871 12.6248ZM230.28 9.18663L230.413 9.47889C231.197 8.90237 231.672 7.9778 231.672 7.00008C231.672 5.30238 230.291 3.92352 228.596 3.92352H226.717V4.23438H228.596C230.121 4.23438 231.362 5.47512 231.362 7.00011C231.362 7.85827 230.958 8.66326 230.28 9.18663ZM230.681 10.0559L230.811 10.3428C231.927 9.60151 232.607 8.34481 232.607 7.00054C232.607 4.78741 230.808 2.98886 228.595 2.98886H226.717V3.29971H228.595C230.636 3.29971 232.296 4.96022 232.296 7.00065C232.296 8.21749 231.683 9.3703 230.681 10.0559ZM231.079 10.9115L231.212 11.1958C232.66 10.2925 233.548 8.70898 233.548 6.99815C233.548 4.27219 231.327 2.05106 228.598 2.05106H226.72V2.36191H228.598C231.154 2.36191 233.234 4.44219 233.234 6.99797C233.234 8.58678 232.413 10.0612 231.079 10.9115ZM231.476 11.767L231.611 12.0566C233.386 10.9939 234.483 9.08087 234.483 7.00587C234.483 3.76181 231.842 1.12105 228.599 1.12105H226.72V1.42926H228.599C231.67 1.42926 234.17 3.9293 234.17 7.00073C234.17 8.9535 233.142 10.7574 231.476 11.767ZM247.076 0C252.918 0 257.671 4.75042 257.671 10.5952C257.671 16.4376 252.918 21.1905 247.076 21.1905C241.234 21.1905 236.481 16.4375 236.481 10.5952C236.481 4.75302 241.234 0 247.076 0ZM247.076 20.5635C252.573 20.5635 257.047 16.0895 257.047 10.5928C257.047 5.09611 252.573 0.622068 247.076 0.622068C241.579 0.622068 237.105 5.09351 237.105 10.5928C237.105 16.092 241.579 20.5635 247.076 20.5635ZM247.076 0.93498C252.403 0.93498 256.736 5.26838 256.733 10.5923C256.733 15.9166 252.4 20.2497 247.076 20.2497C241.752 20.2497 237.419 15.9192 237.419 10.5923C237.419 5.26809 241.749 0.93498 247.076 0.93498ZM247.076 19.6283C252.057 19.6283 256.112 15.5739 256.109 10.5947C256.109 5.61038 252.058 1.559 247.076 1.559C242.094 1.559 238.04 5.61342 238.04 10.5947C238.04 15.576 242.095 19.6283 247.076 19.6283ZM247.076 1.86996C251.887 1.86996 255.798 5.78345 255.798 10.5923C255.798 15.4012 251.885 19.3147 247.076 19.3147C242.267 19.3147 238.354 15.4012 238.354 10.5923C238.354 5.78345 242.267 1.86996 247.076 1.86996ZM247.076 18.6904C251.542 18.6904 255.174 15.0585 255.174 10.5926C255.174 6.12661 251.542 2.4947 247.076 2.4947C242.61 2.4947 238.978 6.12661 238.978 10.5926C238.978 15.0585 242.61 18.6904 247.076 18.6904ZM247.076 2.80566C251.369 2.80566 254.863 6.29953 254.863 10.5931C254.863 14.8866 251.369 18.3805 247.076 18.3805C242.782 18.3805 239.288 14.8866 239.288 10.5931C239.288 6.29953 242.782 2.80566 247.076 2.80566ZM247.076 17.7552C251.027 17.7552 254.239 14.5432 254.239 10.5925C254.239 6.64175 251.027 3.42975 247.076 3.42975C243.125 3.42975 239.913 6.64175 239.913 10.5925C239.913 14.5432 243.125 17.7552 247.076 17.7552ZM247.076 3.74281C250.854 3.74281 253.928 6.81416 253.925 10.5922C253.925 14.3676 250.854 17.4416 247.076 17.4416C243.298 17.4416 240.224 14.3702 240.224 10.5922C240.224 6.81676 243.298 3.74281 247.076 3.74281ZM247.076 16.8201C250.511 16.8201 253.304 14.0277 253.304 10.5925C253.304 7.15725 250.509 4.36488 247.076 4.36488C243.643 4.36488 240.848 7.15725 240.848 10.5925C240.848 14.0277 243.643 16.8201 247.076 16.8201ZM259.169 20.6698H258.545V0.451093H259.169V20.6698ZM260.134 20.6698H259.509V0.451093H260.134V20.6698ZM261.095 20.6698H260.471V0.451093H261.095V20.6698ZM262.06 20.6698H261.435V0.451093H262.06V20.6698ZM264.9 0.451245C268.489 0.451245 271.407 3.37098 271.412 6.96044C271.412 10.5499 268.492 13.4696 264.903 13.4696H263.024V20.6696H262.4V0.450957L264.9 0.451245ZM263.022 4.81352V9.09638H264.9C266.08 9.09638 267.042 8.13728 267.042 6.95495C267.042 5.77262 266.08 4.81352 264.9 4.81352H263.022ZM263.022 9.71801L263.022 10.0316H264.9C266.595 10.0316 267.977 8.6527 267.977 6.95501C267.977 5.25732 266.598 3.87846 264.9 3.87846H263.022V4.18666H264.9C266.425 4.18666 267.666 5.4274 267.666 6.95239C267.666 8.47739 266.425 9.71813 264.9 9.71813L263.022 9.71801ZM263.022 10.6566V10.9674H264.9C267.113 10.9674 268.912 9.16877 268.912 6.95572C268.912 4.74267 267.113 2.94405 264.9 2.94405H263.022V3.2549H264.9C266.941 3.2549 268.601 4.91541 268.601 6.95583C268.601 8.99625 266.941 10.6568 264.9 10.6568L263.022 10.6566ZM263.022 11.5916V11.9024H264.9C267.629 11.9024 269.85 9.68397 269.85 6.95535C269.85 4.22672 267.629 2.00566 264.9 2.00566H263.022V2.31916H264.9C267.456 2.31916 269.536 4.39944 269.536 6.95522C269.536 9.511 267.456 11.5913 264.9 11.5913L263.022 11.5916ZM264.9 12.8457C268.144 12.8457 270.785 10.2049 270.785 6.96087C270.785 3.71689 268.144 1.07606 264.9 1.07606H263.022V1.38426H264.9C267.974 1.38426 270.474 3.8843 270.474 6.95573C270.474 10.0272 267.974 12.5272 264.9 12.5272H263.022V12.846L264.9 12.8457ZM273.493 20.6724H272.869V0.483346H273.493V20.6724ZM274.455 20.6724H273.831V0.483346H274.455V20.6724ZM275.42 20.6724H274.795V0.483346H275.42V20.6724ZM276.381 20.6724H275.757V0.483346H276.381V20.6724ZM284.668 1.10465L277.345 1.10468V1.44475H284.668V2.0691H277.345V2.40651H284.668V3.03086H277.345V3.37094H284.668V3.99529H277.345V4.3327H284.668V4.95705H277.345V8.83603H282.672V9.46038H277.345V9.80045H282.672V10.4222H277.345V10.7622H282.672V11.3866H277.345V11.724H282.672V12.3483H277.345V12.6884H282.672V13.3128H277.345V16.1955H284.668V16.8198H277.345V17.1572H284.668V17.7816H277.345V18.1216H284.668V18.7434H277.345V19.0834H284.668V19.7078H277.345V20.0452H284.668V20.6695H276.722V0.482637H284.668V1.10465ZM290.814 10.3158L291.38 10.0555L296.3 20.6695H295.612L290.814 10.3158ZM291.693 9.92595L292.259 9.66558L297.36 20.6702H296.672L291.693 9.92595ZM292.536 9.4682L293.104 9.20518L298.424 20.669H297.735L292.536 9.4682ZM286.749 20.6698H286.125V0.496578H286.749V20.6698ZM287.711 20.6698H287.087V0.496578H287.711V20.6698ZM288.676 20.6698H288.051V0.496578H288.676V20.6698ZM289.637 20.6698H289.013V0.496578H289.637V20.6698ZM295.753 12.6248L299.486 20.6721H298.798L293.384 8.99241L293.702 8.75861C294.274 8.35741 294.622 7.69851 294.622 6.99976C294.622 5.8175 293.66 4.85834 292.48 4.85834H290.602V10.6608L295.241 20.6691H294.553L290.602 12.146V20.6691H289.978V0.495915H292.478C296.067 0.495915 298.987 3.41565 298.987 7.00511C298.987 9.32451 297.751 11.4557 295.753 12.6248ZM294.162 9.18663L294.295 9.47889C295.079 8.90237 295.554 7.9778 295.554 7.00008C295.554 5.30238 294.173 3.92352 292.478 3.92352H290.599V4.23438H292.478C294.003 4.23438 295.243 5.47512 295.243 7.00011C295.243 7.85827 294.84 8.66326 294.162 9.18663ZM294.563 10.0559L294.693 10.3428C295.809 9.60151 296.489 8.34481 296.489 7.00054C296.489 4.78741 294.69 2.98886 292.477 2.98886H290.599V3.29971H292.477C294.518 3.29971 296.178 4.96022 296.178 7.00065C296.178 8.21749 295.564 9.3703 294.563 10.0559ZM294.961 10.9115L295.094 11.1958C296.542 10.2925 297.43 8.70898 297.43 6.99815C297.43 4.27219 295.208 2.05106 292.48 2.05106H290.601V2.36191H292.48C295.036 2.36191 297.116 4.44219 297.116 6.99797C297.116 8.58678 296.295 10.0612 294.961 10.9115ZM295.358 11.767L295.493 12.0566C297.268 10.9939 298.365 9.08087 298.365 7.00587C298.365 3.76181 295.724 1.12105 292.48 1.12105H290.602V1.42926H292.48C295.552 1.42926 298.052 3.9293 298.052 7.00073C298.052 8.9535 297.024 10.7574 295.358 11.767ZM312.745 1.20573H300.217V0.581377H312.745V1.20573ZM312.745 2.17031H300.217V1.54596H312.745V2.17031ZM312.745 3.132H300.217V2.50765H312.745V3.132ZM312.745 4.09658H300.217V3.47223H312.745V4.09658ZM300.218 5.05828V4.43393H312.748V5.05828H308.72V20.6699H308.098V5.05828H307.758V20.6699H307.134V5.05828H306.796V20.6699H306.172V5.05828H305.832V20.6699H305.207V5.05828H304.87V20.6699H304.246V5.05828H300.218ZM314.098 20.6698H313.474V0.485749H314.098V20.6698ZM315.063 20.6698H314.438V0.485749H315.063V20.6698ZM316.025 20.6698H315.4V0.485749H316.025V20.6698ZM316.989 20.6698H316.365V0.485749H316.989V20.6698ZM317.951 20.6698H317.326V0.485749H317.951V20.6698ZM320.048 20.6724H319.423V0.483346H320.048V20.6724ZM321.009 20.6724H320.385V0.483346H321.009V20.6724ZM321.974 20.6724H321.349V0.483346H321.974V20.6724ZM322.935 20.6724H322.311V0.483346H322.935V20.6724ZM331.222 1.10465L323.899 1.10468V1.44475H331.222V2.0691H323.899V2.40651H331.222V3.03086H323.899V3.37094H331.222V3.99529H323.899V4.3327H331.222V4.95705H323.899V8.83603H329.226V9.46038H323.899V9.80045H329.226V10.4222H323.899V10.7622H329.226V11.3866H323.899V11.724H329.226V12.3483H323.899V12.6884H329.226V13.3128H323.899V16.1955H331.222V16.8198H323.899V17.1572H331.222V17.7816H323.899V18.1216H331.222V18.7434H323.899V19.0834H331.222V19.7078H323.899V20.0452H331.222V20.6695H323.276V0.482637H331.222V1.10465ZM338.936 8.15635C342.366 8.18291 345.15 10.9779 345.15 14.4131C345.15 17.8617 342.344 20.6699 338.893 20.6699C336.319 20.6699 334.042 19.1263 333.086 16.7325L333.585 16.5013L333.651 16.4747C334.504 18.6427 336.563 20.0454 338.891 20.0454C341.997 20.0454 344.523 17.5188 344.523 14.413C344.523 11.3072 341.997 8.78061 338.891 8.78061V8.77263C337.552 8.74871 336.468 7.65412 336.468 6.3071C336.468 4.94679 337.576 3.8389 338.936 3.8389C339.943 3.8389 340.809 4.43668 341.192 5.30281L340.626 5.56583C340.341 4.91491 339.693 4.4632 338.936 4.4632C337.921 4.4632 337.092 5.29212 337.092 6.3097C337.092 7.32727 337.918 8.15635 338.936 8.15635ZM336.144 6.30949C336.144 7.85044 337.398 9.10187 338.936 9.10447C341.845 9.12838 344.202 11.5009 344.202 14.4128C344.202 17.3407 341.819 19.7238 338.891 19.7238C336.702 19.7238 334.736 18.3662 333.944 16.3336L334.51 16.0706C335.2 17.8853 336.946 19.0995 338.891 19.0995C341.476 19.0995 343.577 16.9979 343.577 14.4129C343.577 11.8279 341.476 9.72632 338.891 9.72632V9.72367C337.028 9.69975 335.519 8.17738 335.519 6.30951C335.519 4.42583 337.052 2.89275 338.936 2.89275C340.294 2.89275 341.502 3.70572 342.047 4.90661L341.481 5.16963C341.04 4.18656 340.047 3.51706 338.936 3.51706C337.395 3.51706 336.144 4.76847 336.144 6.30949ZM342.905 4.51101L342.339 4.77668C341.742 3.4589 340.408 2.57417 338.936 2.57417C336.874 2.57417 335.198 4.25064 335.198 6.31236C335.198 8.37408 336.874 10.0505 338.936 10.0505C341.319 10.0745 343.253 12.0193 343.253 14.4105C343.253 16.815 341.298 18.7731 338.89 18.7731C337.073 18.7731 335.436 17.6173 334.807 15.9303L335.375 15.6673C335.901 17.1365 337.318 18.1488 338.89 18.1488C340.952 18.1488 342.629 16.4723 342.629 14.4106C342.629 12.3489 340.952 10.6724 338.89 10.6724V10.6697C336.507 10.6458 334.573 8.70101 334.573 6.30978C334.573 3.90533 336.529 1.94721 338.936 1.94721C340.652 1.94721 342.207 2.97807 342.905 4.51101ZM343.769 4.11247L343.2 4.37283C342.446 2.71232 340.777 1.62298 338.933 1.62298C336.348 1.62298 334.247 3.72455 334.247 6.30958C334.247 8.8946 336.348 10.9962 338.933 10.9962V10.9988C340.796 11.0227 342.305 12.5451 342.305 14.413C342.305 16.2967 340.772 17.8297 338.888 17.8297C337.429 17.8297 336.138 16.8865 335.665 15.5342L336.234 15.2712C336.603 16.4083 337.676 17.2054 338.89 17.2054C340.431 17.2054 341.683 15.954 341.683 14.413C341.683 12.872 340.432 11.6206 338.89 11.6206C335.981 11.5967 333.625 9.22416 333.625 6.31223C333.625 3.3844 336.008 1.00125 338.936 1.00125C341.024 1.00125 342.911 2.23406 343.769 4.11247ZM338.891 12.5663C335.463 12.5424 332.679 9.74473 332.679 6.31209C332.679 2.86097 335.484 0.0553047 338.936 0.0553047C341.412 0.0553047 343.606 1.48203 344.624 3.71638L344.058 3.9794C343.142 1.96555 341.165 0.679611 338.936 0.679611C335.83 0.679611 333.303 3.20622 333.303 6.31202C333.303 9.41781 335.83 11.9444 338.936 11.9444V11.9471C340.275 11.971 341.359 13.0656 341.359 14.4126C341.359 15.7729 340.254 16.8808 338.891 16.8808C337.777 16.8808 336.839 16.1501 336.531 15.1326L337.103 14.867C337.305 15.672 338.027 16.2565 338.891 16.2565C339.908 16.2565 340.737 15.4303 340.737 14.4127C340.737 13.3951 339.908 12.5663 338.891 12.5663Z" fill="white"/>
<path d="M81.8718 40.2641L79.154 44.5726V48.532H77.4317V44.6126L74.6967 40.264H76.5963L78.2842 43.0792L79.9779 40.264L81.8718 40.2641ZM88.3861 48.6463C85.9544 48.6463 84.1577 46.987 84.1577 44.395C84.1577 41.7973 85.9544 40.1494 88.3861 40.1494C90.8121 40.1494 92.6087 41.7973 92.6087 44.395C92.6087 46.9869 90.8121 48.6463 88.3861 48.6463ZM88.3861 47.0728C89.8108 47.0728 90.9037 46.0715 90.9037 44.3951C90.9037 42.7243 89.8109 41.7287 88.3861 41.7287C86.9614 41.7287 85.8685 42.7243 85.8685 44.3951C85.8685 46.0715 86.9614 47.0728 88.3861 47.0728ZM98.9399 48.6463C97.1261 48.6463 95.7071 47.7194 95.7071 45.6367V40.2639H97.4236V45.4021C97.4236 46.6608 98.0931 47.13 98.9399 47.13C99.7924 47.13 100.468 46.6551 100.468 45.4021V40.2639H102.184V45.6367C102.184 47.7194 100.759 48.6463 98.9399 48.6463ZM110.209 48.5319L108.057 44.8928H107.56V48.5319H105.843V40.2641H108.841C110.712 40.2641 111.502 41.3684 111.502 42.7359C111.502 43.8459 110.873 44.5669 109.751 44.8072L112.24 48.5321L110.209 48.5319ZM107.56 41.6884V43.6624H108.572C109.488 43.6624 109.86 43.2734 109.86 42.6783C109.86 42.0889 109.488 41.6884 108.572 41.6884L107.56 41.6884ZM123.363 40.2641C124.982 40.2641 125.989 41.4657 125.989 42.9361C125.989 44.441 124.982 45.5682 123.363 45.5682H121.641V48.532H119.924V40.2643L123.363 40.2641ZM123.077 44.1318C123.935 44.1318 124.336 43.6569 124.336 42.9131C124.336 42.1978 123.935 41.7 123.077 41.7H121.641V44.1318H123.077ZM134.655 48.5319L134.055 46.8267H130.582L129.981 48.5319H128.224L131.268 40.2641H133.368L136.412 48.5319H134.655ZM131.085 45.3906H133.551L132.321 41.8832L131.085 45.3906ZM143.71 48.5319L141.558 44.8928H141.061V48.5319H139.344V40.2641H142.342C144.213 40.2641 145.003 41.3684 145.003 42.7359C145.003 43.8459 144.373 44.5669 143.252 44.8072L145.741 48.5321L143.71 48.5319ZM141.061 41.6884V43.6624H142.073C142.989 43.6624 143.361 43.2734 143.361 42.6783C143.361 42.0889 142.989 41.6884 142.073 41.6884L141.061 41.6884ZM153.486 40.2641V41.7746H151.523V48.5319H149.824V41.7746H147.85V40.2641H153.486ZM162.123 40.2641H163.833V48.5319H161.848L158.186 42.6212V48.5319H156.475V40.2641H158.438L162.123 46.1402V40.2641ZM172.459 41.7746H169.392V43.6513H172.11V45.1447H169.392V47.0157H172.459V48.532H167.664V40.2642H172.459V41.7746ZM180.283 48.5319L178.132 44.8928H177.634V48.5319H175.918V40.2641H178.916C180.787 40.2641 181.576 41.3684 181.576 42.7359C181.576 43.8459 180.947 44.5669 179.825 44.8072L182.314 48.5321L180.283 48.5319ZM177.634 41.6884V43.6624H178.647C179.562 43.6624 179.934 43.2734 179.934 42.6783C179.934 42.0889 179.562 41.6884 178.647 41.6884L177.634 41.6884ZM188.011 48.6463C186.237 48.6463 184.852 47.7937 184.6 46.2431L186.374 45.8369C186.489 46.7638 187.169 47.2444 188.079 47.2444C188.777 47.2444 189.332 46.9354 189.327 46.2374C189.321 45.4592 188.405 45.2132 187.398 44.9042C186.185 44.5265 184.886 44.0802 184.886 42.5583C184.886 41.0191 186.145 40.1494 187.805 40.1494C189.258 40.1494 190.723 40.7388 191.055 42.3237L189.395 42.7356C189.241 41.9117 188.686 41.5512 187.908 41.5512C187.215 41.5512 186.626 41.8373 186.626 42.5182C186.626 43.1533 187.438 43.365 188.377 43.6454C189.624 44.023 191.1 44.5036 191.1 46.1515C191.1 47.908 189.63 48.6463 188.011 48.6463ZM199.111 48.5319V40.2641H200.827V48.5319H199.111ZM210.3 40.2641H212.011V48.5319H210.025L206.363 42.6212V48.5319H204.652V40.2641H206.615L210.3 46.1402V40.2641ZM224.015 40.2641C225.634 40.2641 226.641 41.4657 226.641 42.9361C226.641 44.441 225.634 45.5682 224.015 45.5682H222.292V48.532H220.576V40.2643L224.015 40.2641ZM223.729 44.1318C224.587 44.1318 224.987 43.6569 224.987 42.9131C224.987 42.1978 224.587 41.7 223.729 41.7H222.292V44.1318H223.729ZM234.139 48.5319L231.988 44.8928H231.49V48.5319H229.774V40.2641H232.772C234.643 40.2641 235.432 41.3684 235.432 42.7359C235.432 43.8459 234.803 44.5669 233.682 44.8072L236.17 48.5321L234.139 48.5319ZM231.49 41.6884V43.6624H232.503C233.418 43.6624 233.79 43.2734 233.79 42.6783C233.79 42.0889 233.418 41.6884 232.503 41.6884L231.49 41.6884ZM242.782 48.6463C240.35 48.6463 238.554 46.987 238.554 44.395C238.554 41.7973 240.35 40.1494 242.782 40.1494C245.208 40.1494 247.005 41.7973 247.005 44.395C247.005 46.9869 245.208 48.6463 242.782 48.6463ZM242.782 47.0728C244.207 47.0728 245.3 46.0715 245.3 44.3951C245.3 42.7243 244.207 41.7287 242.782 41.7287C241.357 41.7287 240.264 42.7243 240.264 44.3951C240.264 46.0715 241.357 47.0728 242.782 47.0728ZM253.713 40.2641C255.333 40.2641 256.34 41.4657 256.34 42.9361C256.34 44.441 255.333 45.5682 253.713 45.5682H251.991V48.532H250.275V40.2643L253.713 40.2641ZM253.427 44.1318C254.286 44.1318 254.686 43.6569 254.686 42.9131C254.686 42.1978 254.286 41.7 253.427 41.7H251.991V44.1318H253.427ZM264.267 41.7746H261.201V43.6513H263.918V45.1447H261.201V47.0157H264.267V48.532H259.473V40.2642H264.267V41.7746ZM272.092 48.5319L269.94 44.8928H269.443V48.5319H267.726V40.2641H270.724C272.595 40.2641 273.385 41.3684 273.385 42.7359C273.385 43.8459 272.755 44.5669 271.634 44.8072L274.123 48.5321L272.092 48.5319ZM269.443 41.6884V43.6624H270.455C271.371 43.6624 271.743 43.2734 271.743 42.6783C271.743 42.0889 271.371 41.6884 270.455 41.6884L269.443 41.6884ZM281.868 40.2641V41.7746H279.905V48.5319H278.206V41.7746H276.232V40.2641H281.868ZM291.059 40.2641L288.341 44.5726V48.532H286.619V44.6126L283.884 40.264H285.784L287.472 43.0792L289.165 40.264L291.059 40.2641Z" fill="white"/>
</g>
<defs>
<clipPath id="clip0_11_25">
<rect width="345.15" height="48.6463" fill="white"/>
</clipPath>
</defs>
</svg>
